<mxfile host="app.diagrams.net" modified="2024-07-22T07:02:22.289Z" agent="Mozilla/5.0 (Windows NT 10.0; Win64; x64) AppleWebKit/537.36 (KHTML, like Gecko) Chrome/126.0.0.0 Safari/537.36 Edg/126.0.0.0" etag="jygQ-KGx_emKOjVveg5C" version="24.7.1" type="device">
  <diagram name="main" id="8mLapHFqdo1jrn3I0FfC">
    <mxGraphModel dx="2587" dy="948" grid="1" gridSize="10" guides="1" tooltips="1" connect="1" arrows="1" fold="1" page="1" pageScale="1" pageWidth="850" pageHeight="1100" math="0" shadow="0">
      <root>
        <mxCell id="0" />
        <mxCell id="1" parent="0" />
        <mxCell id="OrMiJg0BN-ZvRhRfi2J_-1" value="" style="edgeStyle=orthogonalEdgeStyle;rounded=0;orthogonalLoop=1;jettySize=auto;html=1;" parent="1" source="OrMiJg0BN-ZvRhRfi2J_-2" target="OrMiJg0BN-ZvRhRfi2J_-11" edge="1">
          <mxGeometry relative="1" as="geometry" />
        </mxCell>
        <mxCell id="OrMiJg0BN-ZvRhRfi2J_-2" value="" style="ellipse;whiteSpace=wrap;html=1;" parent="1" vertex="1">
          <mxGeometry x="309.5" y="50" width="165" height="110" as="geometry" />
        </mxCell>
        <mxCell id="OrMiJg0BN-ZvRhRfi2J_-3" value="&lt;b&gt;Begin SPI &amp;amp; RFID Initialization Configure Pin Modes&lt;/b&gt;" style="text;html=1;align=center;verticalAlign=middle;whiteSpace=wrap;rounded=0;" parent="1" vertex="1">
          <mxGeometry x="322" y="90" width="140" height="30" as="geometry" />
        </mxCell>
        <mxCell id="OrMiJg0BN-ZvRhRfi2J_-4" value="Buzzer(2, 500)" style="rounded=0;whiteSpace=wrap;html=1;" parent="1" vertex="1">
          <mxGeometry x="560" y="320" width="120" height="60" as="geometry" />
        </mxCell>
        <mxCell id="OrMiJg0BN-ZvRhRfi2J_-5" value="" style="edgeStyle=orthogonalEdgeStyle;rounded=0;orthogonalLoop=1;jettySize=auto;html=1;exitX=1;exitY=0.5;exitDx=0;exitDy=0;" parent="1" target="OrMiJg0BN-ZvRhRfi2J_-4" edge="1">
          <mxGeometry relative="1" as="geometry">
            <mxPoint x="442" y="350" as="sourcePoint" />
          </mxGeometry>
        </mxCell>
        <mxCell id="OrMiJg0BN-ZvRhRfi2J_-6" value="15s no scan card" style="edgeLabel;html=1;align=center;verticalAlign=middle;resizable=0;points=[];" parent="OrMiJg0BN-ZvRhRfi2J_-5" connectable="0" vertex="1">
          <mxGeometry x="-0.4751" relative="1" as="geometry">
            <mxPoint x="27" as="offset" />
          </mxGeometry>
        </mxCell>
        <mxCell id="OrMiJg0BN-ZvRhRfi2J_-7" value="" style="edgeStyle=orthogonalEdgeStyle;rounded=0;orthogonalLoop=1;jettySize=auto;html=1;exitX=0.75;exitY=0;exitDx=0;exitDy=0;entryX=0.5;entryY=0;entryDx=0;entryDy=0;" parent="1" source="KgdvImebkF94NnQ0-E8y-14" target="OrMiJg0BN-ZvRhRfi2J_-55" edge="1">
          <mxGeometry relative="1" as="geometry">
            <mxPoint x="452" y="320" as="sourcePoint" />
            <mxPoint x="792.5" y="320" as="targetPoint" />
          </mxGeometry>
        </mxCell>
        <mxCell id="OrMiJg0BN-ZvRhRfi2J_-8" value="Press button R 3s" style="edgeLabel;html=1;align=center;verticalAlign=middle;resizable=0;points=[];" parent="OrMiJg0BN-ZvRhRfi2J_-7" connectable="0" vertex="1">
          <mxGeometry x="0.0629" relative="1" as="geometry">
            <mxPoint x="3" as="offset" />
          </mxGeometry>
        </mxCell>
        <mxCell id="OrMiJg0BN-ZvRhRfi2J_-10" value="" style="edgeStyle=orthogonalEdgeStyle;rounded=0;orthogonalLoop=1;jettySize=auto;html=1;entryX=0.5;entryY=0;entryDx=0;entryDy=0;" parent="1" source="OrMiJg0BN-ZvRhRfi2J_-11" edge="1">
          <mxGeometry relative="1" as="geometry">
            <mxPoint x="392" y="320" as="targetPoint" />
          </mxGeometry>
        </mxCell>
        <mxCell id="OrMiJg0BN-ZvRhRfi2J_-11" value="Press button&amp;nbsp;&lt;div&gt;R 300ms&lt;/div&gt;" style="shape=parallelogram;perimeter=parallelogramPerimeter;whiteSpace=wrap;html=1;fixedSize=1;" parent="1" vertex="1">
          <mxGeometry x="332" y="195" width="120" height="60" as="geometry" />
        </mxCell>
        <mxCell id="OrMiJg0BN-ZvRhRfi2J_-13" value="" style="endArrow=classic;html=1;rounded=0;entryX=0.5;entryY=0;entryDx=0;entryDy=0;exitX=0.5;exitY=1;exitDx=0;exitDy=0;" parent="1" target="FdxAr4GUOYxAC5NYtpeE-6" edge="1">
          <mxGeometry width="50" height="50" relative="1" as="geometry">
            <mxPoint x="391.94499999999994" y="380" as="sourcePoint" />
            <mxPoint x="391.71000000000004" y="479.99999999999994" as="targetPoint" />
          </mxGeometry>
        </mxCell>
        <mxCell id="OrMiJg0BN-ZvRhRfi2J_-14" value="Scan card is registered" style="edgeLabel;html=1;align=center;verticalAlign=middle;resizable=0;points=[];" parent="OrMiJg0BN-ZvRhRfi2J_-13" connectable="0" vertex="1">
          <mxGeometry x="0.1888" y="1" relative="1" as="geometry">
            <mxPoint x="1" as="offset" />
          </mxGeometry>
        </mxCell>
        <mxCell id="OrMiJg0BN-ZvRhRfi2J_-15" value="" style="endArrow=classic;html=1;rounded=0;exitX=0;exitY=0.5;exitDx=0;exitDy=0;entryX=1;entryY=0.5;entryDx=0;entryDy=0;" parent="1" source="KgdvImebkF94NnQ0-E8y-14" target="FdxAr4GUOYxAC5NYtpeE-1" edge="1">
          <mxGeometry width="50" height="50" relative="1" as="geometry">
            <mxPoint x="625.9899999999998" y="410" as="sourcePoint" />
            <mxPoint x="20" y="411.86" as="targetPoint" />
            <Array as="points">
              <mxPoint x="110" y="350" />
            </Array>
          </mxGeometry>
        </mxCell>
        <mxCell id="OrMiJg0BN-ZvRhRfi2J_-16" value="Press button&lt;div&gt;R two times&lt;/div&gt;" style="edgeLabel;html=1;align=center;verticalAlign=middle;resizable=0;points=[];" parent="OrMiJg0BN-ZvRhRfi2J_-15" connectable="0" vertex="1">
          <mxGeometry x="-0.1174" y="-1" relative="1" as="geometry">
            <mxPoint x="-80" y="1" as="offset" />
          </mxGeometry>
        </mxCell>
        <mxCell id="KgdvImebkF94NnQ0-E8y-16" value="15s for config" style="edgeLabel;html=1;align=center;verticalAlign=middle;resizable=0;points=[];" parent="OrMiJg0BN-ZvRhRfi2J_-15" vertex="1" connectable="0">
          <mxGeometry x="-0.4402" y="-1" relative="1" as="geometry">
            <mxPoint as="offset" />
          </mxGeometry>
        </mxCell>
        <mxCell id="KgdvImebkF94NnQ0-E8y-2" value="" style="edgeStyle=orthogonalEdgeStyle;rounded=0;orthogonalLoop=1;jettySize=auto;html=1;exitX=0.5;exitY=1;exitDx=0;exitDy=0;" parent="1" source="FdxAr4GUOYxAC5NYtpeE-2" target="KgdvImebkF94NnQ0-E8y-1" edge="1">
          <mxGeometry relative="1" as="geometry">
            <mxPoint x="-79.25" y="509.920245398773" as="sourcePoint" />
          </mxGeometry>
        </mxCell>
        <mxCell id="KgdvImebkF94NnQ0-E8y-3" value="Yes" style="edgeLabel;html=1;align=center;verticalAlign=middle;resizable=0;points=[];" parent="KgdvImebkF94NnQ0-E8y-2" vertex="1" connectable="0">
          <mxGeometry x="0.0283" y="2" relative="1" as="geometry">
            <mxPoint as="offset" />
          </mxGeometry>
        </mxCell>
        <mxCell id="OrMiJg0BN-ZvRhRfi2J_-18" value="&lt;div&gt;Buzzer(1, 500)&lt;/div&gt;Add card" style="rounded=0;whiteSpace=wrap;html=1;" parent="1" vertex="1">
          <mxGeometry x="-300" y="699.9499999999999" width="127.5" height="59.26" as="geometry" />
        </mxCell>
        <mxCell id="OrMiJg0BN-ZvRhRfi2J_-21" value="&lt;div&gt;Buzzer(3, 500)&lt;/div&gt;Delete all card" style="rounded=0;whiteSpace=wrap;html=1;" parent="1" vertex="1">
          <mxGeometry x="-143.12" y="699.9499999999999" width="127.5" height="60.74" as="geometry" />
        </mxCell>
        <mxCell id="OrMiJg0BN-ZvRhRfi2J_-22" value="" style="endArrow=classic;html=1;rounded=0;exitX=0.5;exitY=1;exitDx=0;exitDy=0;entryX=0.5;entryY=0;entryDx=0;entryDy=0;" parent="1" source="KgdvImebkF94NnQ0-E8y-1" target="OrMiJg0BN-ZvRhRfi2J_-21" edge="1">
          <mxGeometry width="50" height="50" relative="1" as="geometry">
            <mxPoint x="-72.5" y="671.4299999999998" as="sourcePoint" />
            <mxPoint x="-277.5" y="610.6899999999999" as="targetPoint" />
          </mxGeometry>
        </mxCell>
        <mxCell id="OrMiJg0BN-ZvRhRfi2J_-23" value="Press button R 4s" style="edgeLabel;html=1;align=center;verticalAlign=middle;resizable=0;points=[];" parent="OrMiJg0BN-ZvRhRfi2J_-22" connectable="0" vertex="1">
          <mxGeometry x="-0.008" y="-1" relative="1" as="geometry">
            <mxPoint as="offset" />
          </mxGeometry>
        </mxCell>
        <mxCell id="OrMiJg0BN-ZvRhRfi2J_-24" value="Buzzer(2, 500)&lt;div&gt;Delete card&lt;/div&gt;" style="rounded=0;whiteSpace=wrap;html=1;" parent="1" vertex="1">
          <mxGeometry x="20" y="699.95" width="120" height="60.05" as="geometry" />
        </mxCell>
        <mxCell id="OrMiJg0BN-ZvRhRfi2J_-31" value="" style="endArrow=classic;html=1;rounded=0;exitX=0.5;exitY=1;exitDx=0;exitDy=0;entryX=1;entryY=0.5;entryDx=0;entryDy=0;" parent="1" source="OrMiJg0BN-ZvRhRfi2J_-61" target="OrMiJg0BN-ZvRhRfi2J_-56" edge="1">
          <mxGeometry width="50" height="50" relative="1" as="geometry">
            <mxPoint x="590" y="516.04" as="sourcePoint" />
            <mxPoint x="640" y="466.03999999999996" as="targetPoint" />
            <Array as="points">
              <mxPoint x="544" y="786" />
            </Array>
          </mxGeometry>
        </mxCell>
        <mxCell id="OrMiJg0BN-ZvRhRfi2J_-36" value="" style="endArrow=classic;html=1;rounded=0;exitX=0.5;exitY=1;exitDx=0;exitDy=0;entryX=0.5;entryY=0;entryDx=0;entryDy=0;" parent="1" target="OrMiJg0BN-ZvRhRfi2J_-39" edge="1">
          <mxGeometry width="50" height="50" relative="1" as="geometry">
            <mxPoint x="392" y="606.04" as="sourcePoint" />
            <mxPoint x="391.97000000000025" y="659.9999999999998" as="targetPoint" />
          </mxGeometry>
        </mxCell>
        <mxCell id="FdxAr4GUOYxAC5NYtpeE-11" value="Yes" style="edgeLabel;html=1;align=center;verticalAlign=middle;resizable=0;points=[];" parent="OrMiJg0BN-ZvRhRfi2J_-36" vertex="1" connectable="0">
          <mxGeometry x="-0.2969" y="-1" relative="1" as="geometry">
            <mxPoint x="1" y="5" as="offset" />
          </mxGeometry>
        </mxCell>
        <mxCell id="OrMiJg0BN-ZvRhRfi2J_-38" value="" style="edgeStyle=orthogonalEdgeStyle;rounded=0;orthogonalLoop=1;jettySize=auto;html=1;entryX=0.5;entryY=0;entryDx=0;entryDy=0;" parent="1" source="OrMiJg0BN-ZvRhRfi2J_-39" target="OrMiJg0BN-ZvRhRfi2J_-56" edge="1">
          <mxGeometry relative="1" as="geometry">
            <mxPoint x="391.97" y="912.1399999999999" as="targetPoint" />
          </mxGeometry>
        </mxCell>
        <mxCell id="OrMiJg0BN-ZvRhRfi2J_-39" value="Scan card again&lt;div&gt;is registered&lt;/div&gt;" style="shape=parallelogram;perimeter=parallelogramPerimeter;whiteSpace=wrap;html=1;fixedSize=1;" parent="1" vertex="1">
          <mxGeometry x="331.97" y="650" width="120" height="60" as="geometry" />
        </mxCell>
        <mxCell id="OrMiJg0BN-ZvRhRfi2J_-41" value="&lt;div&gt;&amp;nbsp;&lt;span style=&quot;background-color: initial;&quot;&gt;End:&lt;/span&gt;&lt;span style=&quot;background-color: initial;&quot;&gt;&amp;nbsp;Setup Mode&lt;/span&gt;&lt;/div&gt;&lt;div&gt;Buzzer(2, 500)&lt;/div&gt;" style="rounded=0;whiteSpace=wrap;html=1;" parent="1" vertex="1">
          <mxGeometry x="-139.37" y="826.06" width="120" height="64.63" as="geometry" />
        </mxCell>
        <mxCell id="OrMiJg0BN-ZvRhRfi2J_-42" value="" style="endArrow=classic;html=1;rounded=0;exitX=0.5;exitY=1;exitDx=0;exitDy=0;entryX=0;entryY=0;entryDx=0;entryDy=0;" parent="1" source="OrMiJg0BN-ZvRhRfi2J_-18" target="OrMiJg0BN-ZvRhRfi2J_-41" edge="1">
          <mxGeometry width="50" height="50" relative="1" as="geometry">
            <mxPoint x="-377.5" y="780.6899999999999" as="sourcePoint" />
            <mxPoint x="-327.5" y="730.6899999999999" as="targetPoint" />
            <Array as="points">
              <mxPoint x="-237" y="826" />
            </Array>
          </mxGeometry>
        </mxCell>
        <mxCell id="KgdvImebkF94NnQ0-E8y-8" value="&lt;span style=&quot;font-size: 12px; text-wrap: wrap; background-color: rgb(251, 251, 251);&quot;&gt;Press button R&lt;/span&gt;" style="edgeLabel;html=1;align=center;verticalAlign=middle;resizable=0;points=[];" parent="OrMiJg0BN-ZvRhRfi2J_-42" vertex="1" connectable="0">
          <mxGeometry x="-0.3824" y="-1" relative="1" as="geometry">
            <mxPoint as="offset" />
          </mxGeometry>
        </mxCell>
        <mxCell id="OrMiJg0BN-ZvRhRfi2J_-43" value="" style="endArrow=classic;html=1;rounded=0;" parent="1" edge="1">
          <mxGeometry width="50" height="50" relative="1" as="geometry">
            <mxPoint x="-80" y="761.43" as="sourcePoint" />
            <mxPoint x="-79.67999999999984" y="826.06" as="targetPoint" />
          </mxGeometry>
        </mxCell>
        <mxCell id="OrMiJg0BN-ZvRhRfi2J_-44" value="" style="endArrow=classic;html=1;rounded=0;exitX=0.5;exitY=1;exitDx=0;exitDy=0;entryX=1;entryY=0;entryDx=0;entryDy=0;" parent="1" source="OrMiJg0BN-ZvRhRfi2J_-24" target="OrMiJg0BN-ZvRhRfi2J_-41" edge="1">
          <mxGeometry width="50" height="50" relative="1" as="geometry">
            <mxPoint x="-377.5" y="780.6899999999999" as="sourcePoint" />
            <mxPoint x="-327.5" y="730.6899999999999" as="targetPoint" />
            <Array as="points">
              <mxPoint x="80" y="826" />
            </Array>
          </mxGeometry>
        </mxCell>
        <mxCell id="KgdvImebkF94NnQ0-E8y-9" value="&lt;span style=&quot;font-size: 12px; text-wrap: wrap; background-color: rgb(251, 251, 251);&quot;&gt;Press button R&lt;/span&gt;" style="edgeLabel;html=1;align=center;verticalAlign=middle;resizable=0;points=[];" parent="OrMiJg0BN-ZvRhRfi2J_-44" vertex="1" connectable="0">
          <mxGeometry x="-0.3697" y="-1" relative="1" as="geometry">
            <mxPoint as="offset" />
          </mxGeometry>
        </mxCell>
        <mxCell id="OrMiJg0BN-ZvRhRfi2J_-46" value="" style="edgeStyle=orthogonalEdgeStyle;rounded=0;orthogonalLoop=1;jettySize=auto;html=1;entryX=0;entryY=0.5;entryDx=0;entryDy=0;" parent="1" source="OrMiJg0BN-ZvRhRfi2J_-4" target="OrMiJg0BN-ZvRhRfi2J_-55" edge="1">
          <mxGeometry relative="1" as="geometry">
            <mxPoint x="670" y="350" as="sourcePoint" />
            <mxPoint x="792.5" y="350" as="targetPoint" />
          </mxGeometry>
        </mxCell>
        <mxCell id="OrMiJg0BN-ZvRhRfi2J_-47" value="&lt;span style=&quot;font-size: 12px; background-color: rgb(251, 251, 251);&quot;&gt;30s no scan card&lt;/span&gt;" style="edgeLabel;html=1;align=center;verticalAlign=middle;resizable=0;points=[];" parent="OrMiJg0BN-ZvRhRfi2J_-46" vertex="1" connectable="0">
          <mxGeometry x="-0.0536" y="-1" relative="1" as="geometry">
            <mxPoint as="offset" />
          </mxGeometry>
        </mxCell>
        <mxCell id="OrMiJg0BN-ZvRhRfi2J_-55" value="Buzzer(2, 400)&lt;div&gt;Device: off&lt;/div&gt;" style="ellipse;whiteSpace=wrap;html=1;" parent="1" vertex="1">
          <mxGeometry x="800" y="310" width="120" height="80" as="geometry" />
        </mxCell>
        <mxCell id="OrMiJg0BN-ZvRhRfi2J_-56" value="Buzzer(2, 400)&lt;div&gt;Device: off&lt;/div&gt;" style="ellipse;whiteSpace=wrap;html=1;" parent="1" vertex="1">
          <mxGeometry x="332" y="746.06" width="120" height="80" as="geometry" />
        </mxCell>
        <mxCell id="OrMiJg0BN-ZvRhRfi2J_-61" value="Over 10s" style="rounded=0;whiteSpace=wrap;html=1;" parent="1" vertex="1">
          <mxGeometry x="499.99999999999994" y="533.15" width="88.57" height="53.72" as="geometry" />
        </mxCell>
        <mxCell id="KgdvImebkF94NnQ0-E8y-1" value="Scan Master&amp;nbsp;&lt;div&gt;Card&lt;/div&gt;" style="shape=parallelogram;perimeter=parallelogramPerimeter;whiteSpace=wrap;html=1;fixedSize=1;" parent="1" vertex="1">
          <mxGeometry x="-139.37" y="560" width="120" height="60" as="geometry" />
        </mxCell>
        <mxCell id="KgdvImebkF94NnQ0-E8y-4" value="" style="endArrow=classic;html=1;rounded=0;exitX=0;exitY=0.5;exitDx=0;exitDy=0;entryX=0.5;entryY=0;entryDx=0;entryDy=0;" parent="1" source="KgdvImebkF94NnQ0-E8y-1" target="OrMiJg0BN-ZvRhRfi2J_-18" edge="1">
          <mxGeometry width="50" height="50" relative="1" as="geometry">
            <mxPoint x="-300" y="671.43" as="sourcePoint" />
            <mxPoint x="-250" y="621.43" as="targetPoint" />
            <Array as="points">
              <mxPoint x="-236" y="590" />
            </Array>
          </mxGeometry>
        </mxCell>
        <mxCell id="KgdvImebkF94NnQ0-E8y-5" value="Scan new card" style="edgeLabel;html=1;align=center;verticalAlign=middle;resizable=0;points=[];" parent="KgdvImebkF94NnQ0-E8y-4" vertex="1" connectable="0">
          <mxGeometry x="0.3595" relative="1" as="geometry">
            <mxPoint as="offset" />
          </mxGeometry>
        </mxCell>
        <mxCell id="KgdvImebkF94NnQ0-E8y-6" value="" style="endArrow=classic;html=1;rounded=0;exitX=1;exitY=0.5;exitDx=0;exitDy=0;entryX=0.5;entryY=0;entryDx=0;entryDy=0;" parent="1" source="KgdvImebkF94NnQ0-E8y-1" target="OrMiJg0BN-ZvRhRfi2J_-24" edge="1">
          <mxGeometry width="50" height="50" relative="1" as="geometry">
            <mxPoint x="-300" y="671.43" as="sourcePoint" />
            <mxPoint x="-250" y="621.43" as="targetPoint" />
            <Array as="points">
              <mxPoint x="80" y="590" />
            </Array>
          </mxGeometry>
        </mxCell>
        <mxCell id="KgdvImebkF94NnQ0-E8y-7" value="Scan old card" style="edgeLabel;html=1;align=center;verticalAlign=middle;resizable=0;points=[];" parent="KgdvImebkF94NnQ0-E8y-6" vertex="1" connectable="0">
          <mxGeometry x="0.3574" y="-2" relative="1" as="geometry">
            <mxPoint as="offset" />
          </mxGeometry>
        </mxCell>
        <mxCell id="KgdvImebkF94NnQ0-E8y-14" value="&lt;div&gt;Buzzer(2, 400)&lt;/div&gt;Device: on" style="rounded=0;whiteSpace=wrap;html=1;" parent="1" vertex="1">
          <mxGeometry x="335.99" y="320" width="111.97" height="60" as="geometry" />
        </mxCell>
        <mxCell id="KgdvImebkF94NnQ0-E8y-17" value="" style="endArrow=classic;html=1;rounded=0;exitX=1;exitY=0.5;exitDx=0;exitDy=0;entryX=1;entryY=0.5;entryDx=0;entryDy=0;" parent="1" source="FdxAr4GUOYxAC5NYtpeE-2" target="OrMiJg0BN-ZvRhRfi2J_-41" edge="1">
          <mxGeometry width="50" height="50" relative="1" as="geometry">
            <mxPoint x="22.5" y="445" as="sourcePoint" />
            <mxPoint x="-220" y="630" as="targetPoint" />
            <Array as="points">
              <mxPoint x="170" y="450" />
              <mxPoint x="170" y="858" />
            </Array>
          </mxGeometry>
        </mxCell>
        <mxCell id="KgdvImebkF94NnQ0-E8y-18" value="No" style="edgeLabel;html=1;align=center;verticalAlign=middle;resizable=0;points=[];" parent="KgdvImebkF94NnQ0-E8y-17" vertex="1" connectable="0">
          <mxGeometry x="-0.8444" y="-3" relative="1" as="geometry">
            <mxPoint as="offset" />
          </mxGeometry>
        </mxCell>
        <mxCell id="KgdvImebkF94NnQ0-E8y-19" value="" style="endArrow=classic;html=1;rounded=0;exitX=0.5;exitY=1;exitDx=0;exitDy=0;entryX=0;entryY=1;entryDx=0;entryDy=0;" parent="1" source="OrMiJg0BN-ZvRhRfi2J_-41" target="KgdvImebkF94NnQ0-E8y-14" edge="1">
          <mxGeometry width="50" height="50" relative="1" as="geometry">
            <mxPoint x="40" y="670" as="sourcePoint" />
            <mxPoint x="90" y="620" as="targetPoint" />
            <Array as="points">
              <mxPoint x="-79" y="920" />
              <mxPoint x="240" y="920" />
              <mxPoint x="240" y="380" />
            </Array>
          </mxGeometry>
        </mxCell>
        <mxCell id="FdxAr4GUOYxAC5NYtpeE-3" value="" style="edgeStyle=orthogonalEdgeStyle;rounded=0;orthogonalLoop=1;jettySize=auto;html=1;" parent="1" source="FdxAr4GUOYxAC5NYtpeE-1" target="FdxAr4GUOYxAC5NYtpeE-2" edge="1">
          <mxGeometry relative="1" as="geometry" />
        </mxCell>
        <mxCell id="FdxAr4GUOYxAC5NYtpeE-1" value="&lt;div style=&quot;&quot;&gt;&lt;div style=&quot;&quot;&gt;Start:&amp;nbsp;&lt;span style=&quot;background-color: initial;&quot;&gt;SetupMode&lt;/span&gt;&lt;/div&gt;&lt;div style=&quot;&quot;&gt;Buzzer(3, 300)&lt;/div&gt;&lt;/div&gt;" style="rounded=0;whiteSpace=wrap;html=1;align=center;" parent="1" vertex="1">
          <mxGeometry x="-138.9" y="325" width="119.07" height="50" as="geometry" />
        </mxCell>
        <mxCell id="FdxAr4GUOYxAC5NYtpeE-2" value="&lt;div&gt;Within 30s&lt;/div&gt;&lt;div&gt;Doing nothing&lt;/div&gt;" style="rhombus;whiteSpace=wrap;html=1;" parent="1" vertex="1">
          <mxGeometry x="-134.37" y="400" width="110" height="100" as="geometry" />
        </mxCell>
        <mxCell id="FdxAr4GUOYxAC5NYtpeE-10" value="" style="edgeStyle=orthogonalEdgeStyle;rounded=0;orthogonalLoop=1;jettySize=auto;html=1;" parent="1" source="FdxAr4GUOYxAC5NYtpeE-6" target="FdxAr4GUOYxAC5NYtpeE-9" edge="1">
          <mxGeometry relative="1" as="geometry" />
        </mxCell>
        <mxCell id="FdxAr4GUOYxAC5NYtpeE-6" value="&lt;div&gt;Power controler: on&lt;/div&gt;&lt;div&gt;Buzzer(2,500)&lt;/div&gt;" style="rounded=0;whiteSpace=wrap;html=1;" parent="1" vertex="1">
          <mxGeometry x="331.97" y="430" width="120" height="60" as="geometry" />
        </mxCell>
        <mxCell id="FdxAr4GUOYxAC5NYtpeE-12" value="" style="edgeStyle=orthogonalEdgeStyle;rounded=0;orthogonalLoop=1;jettySize=auto;html=1;" parent="1" source="FdxAr4GUOYxAC5NYtpeE-9" target="OrMiJg0BN-ZvRhRfi2J_-61" edge="1">
          <mxGeometry relative="1" as="geometry" />
        </mxCell>
        <mxCell id="FdxAr4GUOYxAC5NYtpeE-13" value="No" style="edgeLabel;html=1;align=center;verticalAlign=middle;resizable=0;points=[];" parent="FdxAr4GUOYxAC5NYtpeE-12" vertex="1" connectable="0">
          <mxGeometry x="-0.0369" relative="1" as="geometry">
            <mxPoint as="offset" />
          </mxGeometry>
        </mxCell>
        <mxCell id="FdxAr4GUOYxAC5NYtpeE-9" value="&lt;span style=&quot;font-size: 11px; text-wrap: nowrap; background-color: rgb(255, 255, 255);&quot;&gt;Receive pulse&amp;nbsp;&lt;/span&gt;&lt;div&gt;&lt;span style=&quot;font-size: 11px; text-wrap: nowrap; background-color: rgb(255, 255, 255);&quot;&gt;from&lt;/span&gt;&lt;span style=&quot;background-color: rgb(255, 255, 255); font-size: 11px; text-wrap: nowrap;&quot;&gt;&amp;nbsp;controler&amp;nbsp;&lt;/span&gt;&lt;/div&gt;" style="rhombus;whiteSpace=wrap;html=1;" parent="1" vertex="1">
          <mxGeometry x="342" y="510.01" width="100" height="100" as="geometry" />
        </mxCell>
      </root>
    </mxGraphModel>
  </diagram>
</mxfile>
